<svg xmlns="http://www.w3.org/2000/svg" xmlns:xlink="http://www.w3.org/1999/xlink" width="500" zoomAndPan="magnify" viewBox="0 0 375 374.999991" height="500" preserveAspectRatio="xMidYMid meet" version="1.0"><defs><g/><clipPath id="77f2f33d8c"><path d="M 35 0 L 349 0 L 349 375 L 35 375 Z M 35 0 " clip-rule="nonzero"/></clipPath><clipPath id="9f8f3cb093"><path d="M 74.554688 0 L 348.632812 31.097656 L 309.515625 375.835938 L 35.4375 344.738281 Z M 74.554688 0 " clip-rule="nonzero"/></clipPath><clipPath id="4bb3ff20dc"><path d="M 74.554688 0 L 348.632812 31.097656 L 309.617188 374.957031 L 35.539062 343.859375 Z M 74.554688 0 " clip-rule="nonzero"/></clipPath><clipPath id="66b6f0cdab"><path d="M 35 0 L 349 0 L 349 375 L 35 375 Z M 35 0 " clip-rule="nonzero"/></clipPath><clipPath id="98dbd8d6cd"><path d="M 74.554688 0 L 348.796875 31.117188 L 309.816406 374.664062 L 35.574219 343.546875 Z M 74.554688 0 " clip-rule="nonzero"/></clipPath><clipPath id="133c8c1738"><path d="M 74.554688 0 L 350.664062 31.328125 L 311.230469 378.84375 L 35.125 347.515625 Z M 74.554688 0 " clip-rule="nonzero"/></clipPath><clipPath id="0b24604803"><path d="M 74.554688 0 L 348.632812 31.097656 L 309.617188 374.957031 L 35.539062 343.859375 Z M 74.554688 0 " clip-rule="nonzero"/></clipPath><clipPath id="ccaa0268e7"><path d="M 54.167969 14.445312 L 330.003906 14.445312 L 330.003906 360.511719 L 54.167969 360.511719 Z M 54.167969 14.445312 " clip-rule="nonzero"/></clipPath><clipPath id="3c8661daad"><path d="M 54.167969 14.445312 L 330.003906 14.445312 L 330.003906 360.195312 L 54.167969 360.195312 Z M 54.167969 14.445312 " clip-rule="nonzero"/></clipPath></defs><rect x="-37.5" width="450" fill="#ffffff" y="-37.499999" height="449.999989" fill-opacity="1"/><rect x="-37.5" width="450" fill="#ffffff" y="-37.499999" height="449.999989" fill-opacity="1"/><g clip-path="url(#77f2f33d8c)"><g clip-path="url(#9f8f3cb093)"><g clip-path="url(#4bb3ff20dc)"><path fill="#ffffff" d="M 74.554688 0 L 348.632812 31.097656 L 309.636719 374.765625 L 35.5625 343.667969 Z M 74.554688 0 " fill-opacity="1" fill-rule="nonzero"/></g></g></g><g clip-path="url(#66b6f0cdab)"><g clip-path="url(#98dbd8d6cd)"><g clip-path="url(#133c8c1738)"><g clip-path="url(#0b24604803)"><path stroke-linecap="butt" transform="matrix(0.745218, 0.0845563, -0.0845563, 0.745218, 74.555083, 0.000020923)" fill="none" stroke-linejoin="miter" d="M -0.000526857 0.0000317037 L 367.781723 -0.000860706 L 367.782317 461.420097 L 0.000067314 461.42099 Z M -0.000526857 0.0000317037 " stroke="#000000" stroke-width="6" stroke-opacity="1" stroke-miterlimit="4"/></g></g></g></g><g clip-path="url(#ccaa0268e7)"><path fill="#ffffff" d="M 54.167969 14.445312 L 330.003906 14.445312 L 330.003906 360.320312 L 54.167969 360.320312 Z M 54.167969 14.445312 " fill-opacity="1" fill-rule="nonzero"/></g><g clip-path="url(#3c8661daad)"><path stroke-linecap="butt" transform="matrix(0.75, 0, 0, 0.75, 54.167684, 14.445924)" fill="none" stroke-linejoin="miter" d="M 0.000379476 -0.000815029 L 367.781654 -0.000815029 L 367.781654 461.42109 L 0.000379476 461.42109 Z M 0.000379476 -0.000815029 " stroke="#000000" stroke-width="6" stroke-opacity="1" stroke-miterlimit="4"/></g><g fill="#a51d21" fill-opacity="1"><g transform="translate(97.34366, 302.073893)"><g><path d="M -28.609375 -100.84375 C -29.421875 -106.570312 -27.984375 -112.425781 -24.296875 -118.40625 C -20.609375 -124.382812 -16.4375 -130.242188 -11.78125 -135.984375 C -7.132812 -141.734375 -0.078125 -148.804688 9.390625 -157.203125 C 18.867188 -165.597656 29.132812 -173.351562 40.1875 -180.46875 C 51.238281 -187.59375 65.082031 -194.300781 81.71875 -200.59375 C 98.363281 -206.894531 115.828125 -211.332031 134.109375 -213.90625 C 150.003906 -216.144531 166.234375 -215.316406 182.796875 -211.421875 C 191.191406 -209.410156 198.347656 -205.757812 204.265625 -200.46875 C 210.191406 -195.175781 213.71875 -188.554688 214.84375 -180.609375 C 216.582031 -168.234375 210.84375 -154.800781 197.625 -140.3125 C 184.40625 -125.832031 160.191406 -108.382812 124.984375 -87.96875 C 121.421875 -86.519531 119.753906 -84.96875 119.984375 -83.3125 C 120.066406 -82.75 120.535156 -82.148438 121.390625 -81.515625 C 151.878906 -54.910156 176.472656 -36.796875 195.171875 -27.171875 C 197.441406 -25.804688 198.691406 -24.289062 198.921875 -22.625 C 199.492188 -18.5625 193.773438 -15.679688 181.765625 -13.984375 C 169.753906 -12.296875 159.222656 -14.773438 150.171875 -21.421875 C 111.535156 -52.347656 87.023438 -73.207031 76.640625 -84 C 76.347656 -84.707031 75.972656 -85.023438 75.515625 -84.953125 C 75.054688 -84.890625 74.601562 -84.457031 74.15625 -83.65625 C 49.394531 -42.675781 35.515625 -16.125 32.515625 -4 C 32.929688 -1.050781 32.628906 0.488281 31.609375 0.625 C 30.585938 0.769531 28.890625 0.445312 26.515625 -0.34375 C 24.148438 -1.144531 21.539062 -2.945312 18.6875 -5.75 C 15.84375 -8.550781 14.101562 -12.210938 13.46875 -16.734375 C 12.832031 -21.265625 13.894531 -27.113281 16.65625 -34.28125 C 37.539062 -76.039062 60.757812 -111.914062 86.3125 -141.90625 C 97.164062 -154.53125 107.609375 -164.664062 117.640625 -172.3125 C 119.097656 -174.019531 120.519531 -174.96875 121.90625 -175.15625 C 123.289062 -175.351562 125.039062 -174.941406 127.15625 -173.921875 C 129.28125 -172.910156 130.46875 -171.523438 130.71875 -169.765625 C 130.96875 -168.015625 130.445312 -166.382812 129.15625 -164.875 C 108.382812 -137.082031 94.3125 -116.539062 86.9375 -103.25 C 84.894531 -100.332031 83.9375 -98.410156 84.0625 -97.484375 C 84.195312 -96.554688 84.734375 -96.15625 85.671875 -96.28125 L 86.765625 -96.4375 C 108.085938 -105.664062 125.15625 -114.289062 137.96875 -122.3125 C 165.125 -139.507812 185.160156 -156.460938 198.078125 -173.171875 C 200.804688 -176.554688 201.972656 -179.640625 201.578125 -182.421875 C 200.984375 -186.671875 196.972656 -189.398438 189.546875 -190.609375 C 182.117188 -191.828125 170.691406 -191.347656 155.265625 -189.171875 C 139.835938 -187.003906 121.269531 -182.035156 99.5625 -174.265625 C 77.851562 -166.503906 56.628906 -155.9375 35.890625 -142.5625 C 15.160156 -129.195312 0.390625 -115.007812 -8.421875 -100 C -9.660156 -98.132812 -10.234375 -96.878906 -10.140625 -96.234375 C -10.054688 -95.585938 -9 -95.40625 -6.96875 -95.6875 C -4.9375 -95.976562 1.0625 -99.175781 11.03125 -105.28125 C 21.007812 -111.394531 29.484375 -117.203125 36.453125 -122.703125 C 47.148438 -132.328125 53.976562 -137.347656 56.9375 -137.765625 C 58.039062 -137.921875 58.625 -137.765625 58.6875 -137.296875 C 58.757812 -136.835938 57.832031 -135.0625 55.90625 -131.96875 C 53.976562 -128.875 51.234375 -124.90625 47.671875 -120.0625 C 44.117188 -115.21875 39.660156 -109.785156 34.296875 -103.765625 C 22.140625 -89.796875 10.238281 -81.988281 -1.40625 -80.34375 C -7.6875 -79.46875 -13.09375 -80.738281 -17.625 -84.15625 C -22.164062 -87.570312 -25.09375 -91.257812 -26.40625 -95.21875 Z M -28.609375 -100.84375 "/></g></g></g></svg>